<?xml version="1.0" standalone="no"?>
<!DOCTYPE svg PUBLIC "-//W3C//DTD SVG 20010904//EN"
 "http://www.w3.org/TR/2001/REC-SVG-20010904/DTD/svg10.dtd">
<svg version="1.0" xmlns="http://www.w3.org/2000/svg"
 width="259.000000pt" height="194.000000pt" viewBox="0 0 259.000000 194.000000"
 preserveAspectRatio="xMidYMid meet">
<metadata>
Created by potrace 1.16, written by Peter Selinger 2001-2019
</metadata>
<g transform="translate(0.000000,194.000000) scale(0.100000,-0.100000)"
fill="#000000" stroke="none">
<path d="M1397 1603 c-8 -50 -30 -77 -121 -155 -88 -76 -110 -107 -101 -148 6
-28 93 -145 102 -136 2 2 -10 25 -26 52 -35 54 -39 97 -13 135 9 14 49 56 88
95 77 74 103 128 86 175 -8 20 -10 19 -15 -18z"/>
<path d="M1433 1441 c-87 -40 -133 -90 -133 -144 0 -13 13 -44 30 -68 32 -47
37 -77 18 -99 -10 -11 -9 -11 7 0 52 38 58 80 20 136 -14 20 -25 43 -25 50 0
31 27 66 77 100 71 50 72 54 6 25z"/>
<path d="M970 495 c0 -144 -1 -156 -21 -174 -12 -11 -18 -24 -14 -30 9 -16 19
-14 49 14 l26 24 0 161 c0 153 -1 160 -20 160 -19 0 -20 -7 -20 -155z"/>
<path d="M1076 561 c-28 -11 -6 -21 41 -19 49 2 63 -7 63 -38 0 -20 -5 -24
-29 -24 -72 0 -116 -45 -93 -95 15 -33 55 -42 98 -22 19 9 34 12 34 7 0 -6 7
-10 15 -10 12 0 15 16 15 88 0 73 -3 92 -18 105 -19 18 -90 22 -126 8z"/>
<path d="M1284 465 c31 -104 31 -105 62 -105 28 0 32 4 52 63 12 34 26 81 31
105 8 39 7 42 -13 42 -18 0 -24 -10 -39 -80 -10 -44 -21 -80 -25 -80 -4 0 -18
36 -31 80 -21 69 -27 80 -46 80 l-22 0 31 -105z"/>
<path d="M1493 563 c-27 -10 -12 -25 20 -20 47 7 77 -8 77 -38 0 -21 -5 -25
-29 -25 -72 0 -116 -45 -93 -95 15 -33 55 -42 98 -22 19 9 34 12 34 7 0 -6 7
-10 15 -10 12 0 15 16 15 88 0 106 -11 122 -81 121 -24 0 -50 -3 -56 -6z"/>
</g>
</svg>
