<?xml version="1.0" standalone="no"?>
<!DOCTYPE svg PUBLIC "-//W3C//DTD SVG 20010904//EN"
 "http://www.w3.org/TR/2001/REC-SVG-20010904/DTD/svg10.dtd">
<svg version="1.0" xmlns="http://www.w3.org/2000/svg"
 width="200.000000pt" height="200.000000pt" viewBox="0 0 200.000000 200.000000"
 preserveAspectRatio="xMidYMid meet">
<metadata>
Created by potrace 1.16, written by Peter Selinger 2001-2019
</metadata>
<g transform="translate(0.000000,200.000000) scale(0.100000,-0.100000)"
fill="#000000" stroke="none">
<path d="M0 1000 l0 -1000 1000 0 1000 0 0 1000 0 1000 -1000 0 -1000 0 0
-1000z m515 209 c22 -6 56 -28 76 -48 46 -46 61 -110 57 -252 l-3 -104 -52 -3
-53 -3 0 108 c0 121 -12 178 -40 193 -31 17 -85 12 -114 -11 -26 -20 -26 -22
-26 -155 l0 -134 -55 0 -55 0 0 205 0 205 50 0 c38 0 50 -4 50 -15 0 -17 16
-20 25 -5 6 10 58 27 85 29 8 1 33 -4 55 -10z m493 -15 c136 -57 184 -244 91
-357 -35 -42 -54 -45 -106 -17 -21 11 -54 20 -73 20 -20 0 -53 -9 -75 -20 -70
-36 -92 -26 -135 59 -32 64 -26 160 15 227 56 90 184 130 283 88z m265 -97
c22 -59 43 -104 47 -100 4 4 14 28 23 53 9 25 26 71 37 103 l22 58 45 -3 46
-3 39 -104 c21 -58 40 -106 42 -109 2 -2 23 46 47 107 l42 111 54 0 c47 0 54
-2 49 -17 -3 -10 -39 -101 -79 -203 l-73 -185 -41 -3 -41 -3 -22 58 c-11 32
-28 78 -37 103 -9 25 -19 49 -23 53 -4 4 -25 -41 -46 -100 l-39 -108 -42 -3
-41 -3 -60 153 c-33 84 -70 177 -81 206 l-21 53 57 -3 56 -3 40 -108z"/>
<path d="M875 1090 c-61 -25 -91 -109 -61 -168 47 -92 188 -75 215 26 26 92
-68 178 -154 142z"/>
</g>
</svg>
