<?xml version="1.0" encoding="utf-8"?>
<!-- Generator: Adobe Illustrator 24.1.1, SVG Export Plug-In . SVG Version: 6.00 Build 0)  -->
<svg version="1.1" id="Layer_1" xmlns="http://www.w3.org/2000/svg" xmlns:xlink="http://www.w3.org/1999/xlink" x="0px" y="0px"
	 viewBox="0 0 512 512" style="enable-background:new 0 0 512 512;" xml:space="preserve">
<g>
	<path d="M465.6,26.8c-7.2,17.2-16.3,33.5-27.3,48.5C390.1,27.3,324.8,0.3,256.7,0.3C115.9,0.3,0,116.1,0,257
		c0,70.3,28.8,137.5,79.8,185.9l9.4,8.4c46.3,39,104.9,60.3,165.4,60.4c133.9,0,246.5-104.8,256-238.4
		C517.6,207.9,498.3,125.3,465.6,26.8L465.6,26.8z M116.2,444.4c-4.1,5.2-10.4,8.1-17,8.1c-12.2,0-21.9-9.8-22-21.9
		c0-12.1,10-22,22-22C117.6,408.6,127.8,430.1,116.2,444.4z M464.6,367.6c-63.3,84.3-198.7,55.9-285.4,60c0,0-15.4,0.9-30.9,3.4
		c0,0,5.8-2.4,13.3-5.3c60.9-21.2,89.7-25.3,126.7-44.3C358,346,426.9,268.5,441.2,187.9c-26.6,77.6-107,144.2-180.3,171.3
		c-50.2,18.5-140.9,36.5-140.9,36.5l-3.7-1.9C54.7,363.7,52.8,230,165,186.9c49.1-18.8,96.2-8.5,149.2-21.1
		c56.7-13.5,122.3-56,148.9-111.4C493,143,528.9,281.8,464.6,367.6L464.6,367.6z"/>
</g>
</svg>
