<?xml version="1.0" encoding="utf-8"?>
<!-- Generator: Adobe Illustrator 24.1.1, SVG Export Plug-In . SVG Version: 6.00 Build 0)  -->
<svg version="1.1" id="Layer_1" xmlns="http://www.w3.org/2000/svg" xmlns:xlink="http://www.w3.org/1999/xlink" x="0px" y="0px"
	 viewBox="0 0 512 512" style="enable-background:new 0 0 512 512;" xml:space="preserve">
<style type="text/css">
	.st0{fill:#6DB33F;}
</style>
<g>
	<path class="st0" d="M489.9,109.7L148.1,3.4c-16.5-5.1-34.3,4.1-39.5,20.5L1.4,363.1c-5.2,16.4,4.1,34,20.6,39.2l341.9,106.3
		c16.5,5.1,34.3-4.1,39.5-20.5l107.2-339.2C515.7,132.5,506.5,114.9,489.9,109.7z M162.1,362.7c0,14.5-11.9,26.4-26.6,26.4h-0.1
		c-14.6,0-26.6-11.9-26.6-26.4v-135c0-14.5,11.9-26.3,26.6-26.3h0.1c14.6,0,26.6,11.9,26.6,26.3V362.7z M135.5,175.3
		c-14.8,0-26.7-11.9-26.7-26.5c0-14.6,12-26.5,26.7-26.5c14.8,0,26.7,11.9,26.7,26.5C162.2,163.5,150.2,175.3,135.5,175.3z
		 M304.6,388.9c-66.5,0-120.3-54.6-120.3-120.6c0-66,53.9-119.5,120.4-119.5c34.2,0,65.1,14.2,87.1,37l12.9-22.6
		c13.2,35.3,21.8,76.5,21.8,104.8C426.4,334.1,371.1,388.9,304.6,388.9z"/>
	<path class="st0" d="M259.2,350.2c12.9-4,26.7-8.3,38.2-11.9c45.5-14.6,84.6-51.3,95-97.4c-8.2,21.7-41.8,64-94.5,80.9
		c-16.9,5.3-34.4,8.7-51.7,12.6c-2.2,0.5-5.3-0.1-7.2-1.3c-11.1-6.8-17.1-19.1-18-31.4c-2.5-33.2,20.2-60.3,54-67.3
		c14.2-2.9,28.8-2.2,43.3-3.7c38.3-4,74.3-31.2,85.2-53.9c0,0,2,4.4,2.4,5.7c8.2,25.5,14.8,51.4,15.4,78.4
		c0.3,14.6-1.3,28.9-6.5,42.7c-10.4,27.7-31.8,41.7-60.3,45c-16.7,1.9-33.6,1.5-50.4,1.8C290.4,350.7,274.6,350.2,259.2,350.2"/>
	<path class="st0" d="M242.2,351.6c0,5.6-4.6,10.2-10.3,10.2c-5.7,0-10.3-4.6-10.3-10.2c0-5.6,4.6-10.2,10.3-10.2
		C237.6,341.4,242.2,345.9,242.2,351.6"/>
</g>
</svg>
