<?xml version="1.0" standalone="no"?>
<!DOCTYPE svg PUBLIC "-//W3C//DTD SVG 20010904//EN"
 "http://www.w3.org/TR/2001/REC-SVG-20010904/DTD/svg10.dtd">
<svg version="1.0" xmlns="http://www.w3.org/2000/svg"
 width="640.000000pt" height="640.000000pt" viewBox="0 0 640.000000 640.000000"
 preserveAspectRatio="xMidYMid meet">
<metadata>
Created by potrace 1.16, written by Peter Selinger 2001-2019
</metadata>
<g transform="translate(0.000000,640.000000) scale(0.100000,-0.100000)"
fill="#000000" stroke="none">
<path d="M2240 4920 c-448 -16 -775 -43 -935 -76 -134 -28 -308 -130 -390
-229 -118 -145 -159 -296 -197 -725 -18 -210 -18 -1178 0 -1380 28 -314 67
-517 119 -611 93 -172 284 -305 498 -348 121 -24 351 -46 665 -63 322 -18
2034 -18 2365 0 745 39 885 74 1076 262 137 136 183 272 223 663 39 368 46
1022 16 1382 -44 533 -97 724 -244 869 -73 73 -163 128 -261 160 -106 34 -399
64 -855 87 -272 13 -1768 20 -2080 9z m1118 -1340 c336 -206 611 -377 611
-380 0 -4 -1137 -706 -1235 -763 -12 -7 -14 111 -14 763 0 652 2 770 14 763 7
-4 288 -177 624 -383z"/>
</g>
</svg>
